<svg viewBox="0 0 1200 630" xmlns="http://www.w3.org/2000/svg">
  <rect width="1200" height="630" fill="#1a1a12"/>

  <!-- Thumbprint + lock -->
  <g transform="translate(450, 80) scale(2.8)">
    <path d="M25 80 Q25 25 50 25 Q75 25 75 50" fill="none" stroke="#7c9a3e" stroke-width="4" stroke-linecap="round"/>
    <path d="M33 75 Q33 35 50 35 Q67 35 67 52" fill="none" stroke="#7c9a3e" stroke-width="4" stroke-linecap="round"/>
    <path d="M41 70 Q41 45 50 45 Q59 45 59 55" fill="none" stroke="#c9a227" stroke-width="4" stroke-linecap="round"/>
    <path d="M50 65 L50 53" fill="none" stroke="#c9a227" stroke-width="4" stroke-linecap="round"/>
    <rect x="63" y="72" width="22" height="18" rx="2" fill="none" stroke="#c9a227" stroke-width="3"/>
    <path d="M68 72 V66 Q68 58 74 58 Q80 58 80 66 V72" fill="none" stroke="#c9a227" stroke-width="3" stroke-linecap="round"/>
  </g>

  <!-- App name -->
  <text x="600" y="440" font-family="-apple-system, BlinkMacSystemFont, serif" font-size="72" font-weight="700" fill="#faf9f5" text-anchor="middle" letter-spacing="12">SIGNET</text>

  <!-- Tagline -->
  <text x="600" y="500" font-family="-apple-system, BlinkMacSystemFont, sans-serif" font-size="28" fill="#a8a598" text-anchor="middle">Thurin Identity Forge</text>

  <!-- Subtle brand -->
  <text x="600" y="580" font-family="-apple-system, BlinkMacSystemFont, sans-serif" font-size="20" fill="#5a5a4a" text-anchor="middle">thurin.id</text>
</svg>
